<?xml version="1.0" encoding="UTF-8" standalone="no"?>
<!DOCTYPE svg PUBLIC "-//W3C//DTD SVG 1.1//EN" "http://www.w3.org/Graphics/SVG/1.1/DTD/svg11.dtd">
<svg width="100%" height="100%" viewBox="0 0 1800 1800" version="1.1" xmlns="http://www.w3.org/2000/svg" xmlns:xlink="http://www.w3.org/1999/xlink" xml:space="preserve" xmlns:serif="http://www.serif.com/" style="fill-rule:evenodd;clip-rule:evenodd;stroke-linejoin:round;stroke-miterlimit:2;">
    <path d="M1617.2,960.655C1617.2,965.984 1612.2,968.981 1602.21,969.647C1572.24,970.979 1553.26,974.476 1545.26,980.138C1537.27,985.799 1528.28,1002.62 1518.29,1030.59C1512.29,1045.91 1503.3,1069.22 1491.31,1100.53C1482.65,1126.5 1469,1166.47 1450.35,1220.42C1441.03,1245.73 1427.04,1284.03 1408.39,1335.31L1359.43,1472.19C1324.8,1568.77 1305.48,1624.38 1301.49,1639.03C1298.82,1647.69 1295.83,1652.02 1292.5,1652.02C1288.5,1652.02 1285.17,1648.86 1282.5,1642.53C1279.84,1636.2 1272.18,1613.39 1259.53,1574.09C1242.87,1522.14 1218.56,1457.53 1186.59,1380.27L1152.62,1298.35C1086.02,1440.88 1038.06,1554.11 1008.75,1638.03C1005.43,1646.69 1001.76,1651.02 997.765,1651.02C995.101,1651.02 986.775,1633.37 972.788,1598.07L850.9,1280.36C821.593,1200.44 783.961,1105.19 738.003,994.624C733.341,982.635 725.681,975.309 715.024,972.644C709.03,970.646 697.374,969.647 680.056,969.647C662.739,969.647 654.08,966.65 654.08,960.655C654.08,955.327 658.743,952.663 668.067,952.663C667.401,952.663 678.391,952.663 701.037,952.663C724.349,953.329 744.331,953.662 760.982,953.662L798.947,953.662L899.855,951.664C903.185,951.664 908.847,951.331 916.839,950.665L930.826,950.665C939.485,950.665 943.815,953.995 943.815,960.655C943.815,966.65 933.158,969.314 911.844,968.648C900.521,968.648 894.859,971.645 894.859,977.64C894.859,980.304 895.526,983.301 896.858,986.632C911.511,1027.26 933.824,1087.87 963.796,1168.46L1066.7,1434.22L1136.64,1274.37C1126.65,1245.06 1107.33,1192.44 1078.69,1116.51C1073.36,1104.52 1066.04,1086.21 1056.71,1061.56C1054.71,1055.57 1051.38,1046.24 1046.72,1033.59C1035.4,1002.95 1026.07,984.467 1018.75,978.139C1011.42,971.812 996.1,968.648 972.788,968.648C966.127,967.982 962.797,964.985 962.797,959.656C962.797,953.662 969.125,950.665 981.78,950.665C979.782,950.665 983.278,950.998 992.27,951.664C1001.26,952.33 1016.08,952.663 1036.73,952.663L1385.41,951.664C1398.07,950.998 1404.39,953.995 1404.39,960.655C1404.39,965.984 1399.4,968.648 1389.41,968.648C1342.12,967.982 1314.81,975.975 1307.48,992.626C1296.16,1010.61 1272.51,1061.56 1236.55,1145.49C1259.86,1205.43 1297.16,1300.34 1348.44,1430.23C1359.1,1402.92 1370.42,1372.61 1382.41,1339.31C1393.07,1311.33 1410.39,1263.71 1434.37,1196.44C1449.68,1151.81 1462.67,1115.51 1473.33,1087.54C1491.31,1040.25 1500.3,1009.61 1500.3,995.623C1500.3,982.302 1493.64,973.977 1480.32,970.646C1475.66,969.314 1463.67,968.648 1444.36,968.648C1433.7,968.648 1428.37,965.984 1428.37,960.655C1428.37,955.327 1433.37,952.663 1443.36,952.663L1522.28,954.661C1556.25,955.327 1581.9,954.661 1599.21,952.663L1607.21,952.663C1613.87,952.663 1617.2,955.327 1617.2,960.655ZM1274.51,995.623C1274.51,977.64 1258.53,968.648 1226.56,968.648C1193.92,968.648 1177.6,974.643 1177.6,986.632C1177.6,1003.28 1193.59,1045.91 1225.56,1114.51C1258.19,1046.58 1274.51,1006.95 1274.51,995.623ZM536.761,588.847L536.761,794.558C536.761,834.256 539.007,859.248 543.498,869.534C547.989,879.819 555.891,888.03 567.202,894.165C578.513,900.3 599.639,903.368 630.579,903.368C638.699,903.368 643.689,905.539 643.661,913.303C643.632,921.262 639.243,923.189 630.579,923.398L284.251,923.398C278.866,923.398 272.542,922.09 272.542,912.862C272.542,903.881 279.327,903.368 284.251,903.368C315.524,903.368 336.733,900.21 347.878,893.894C359.023,887.579 366.841,879.368 371.332,869.263C375.824,859.158 378.069,834.256 378.069,794.558L378.069,318.174C378.069,278.476 375.824,253.484 371.332,243.198C366.841,232.913 358.94,224.702 347.628,218.567C336.317,212.432 315.19,209.071 284.251,209.364C277.398,209.429 272.17,208.348 271.812,199.388C271.532,192.377 277.207,189.362 284.251,189.334L598.641,189.334C680.482,189.334 740.366,195.47 778.292,207.74C816.218,220.011 847.158,242.657 871.112,275.679C895.065,308.701 907.042,347.407 907.042,391.797C907.042,445.932 889.077,490.683 853.147,526.051C830.191,548.426 798.087,565.208 756.834,576.396L738.618,579.97L873.489,923.398L713.128,923.398C709.976,923.398 707.152,921.448 706.036,918.5C692.396,882.488 607.556,658.498 586.1,601.851C583.136,594.024 575.639,588.847 567.269,588.847L536.761,588.847ZM543.359,228.853C539.715,228.853 536.761,231.807 536.761,235.451C536.761,281.285 536.761,550.411 536.761,550.411L565.206,550.411C611.449,550.411 646.049,545.81 669.004,536.607C691.96,527.404 710.008,510.803 723.149,486.803C736.29,462.804 742.861,431.496 742.861,392.88C742.861,336.941 730.801,295.618 706.681,268.912C682.561,242.206 643.72,228.853 590.157,228.853L543.359,228.853Z" style="fill-rule:nonzero;"/>
</svg>
