<?xml version="1.0" encoding="UTF-8" standalone="no"?>
<!DOCTYPE svg PUBLIC "-//W3C//DTD SVG 1.1//EN" "http://www.w3.org/Graphics/SVG/1.1/DTD/svg11.dtd">
<svg width="100%" height="100%" viewBox="0 0 2000 2000" version="1.1" xmlns="http://www.w3.org/2000/svg" xmlns:xlink="http://www.w3.org/1999/xlink" xml:space="preserve" xmlns:serif="http://www.serif.com/" style="fill-rule:evenodd;clip-rule:evenodd;stroke-linejoin:round;stroke-miterlimit:2;">
    <g transform="matrix(1.01457,0,0,1.01457,-33.7764,-7.97963)">
        <circle cx="1016.72" cy="993.845" r="953.43" style="fill:white;"/>
    </g>
    <g transform="matrix(1.21171,0,0,1.21171,-211.715,-211.706)">
        <path d="M1000.02,191.444C1446.27,191.444 1808.56,553.738 1808.56,999.982C1808.56,1446.23 1446.27,1808.52 1000.02,1808.52C553.777,1808.52 191.483,1446.23 191.483,999.982C191.483,553.738 553.777,191.444 1000.02,191.444ZM1301.33,1440.01L1302.21,1440.15L1303.1,1440.2L1303.49,1440.35L1303.9,1440.41L1304.69,1440.82L1305.53,1441.14L1305.85,1441.41L1306.22,1441.6L1306.85,1442.23L1307.55,1442.79L1307.77,1443.15L1308.07,1443.44L1308.47,1444.24L1308.95,1444.99L1309.06,1445.39L1309.25,1445.77L1309.39,1446.65L1309.62,1447.51L1309.59,1447.93L1309.66,1448.34L1309.52,1449.22L1309.47,1450.11C1309.42,1450.35 1309.36,1450.58 1309.31,1450.82C1308.89,1452.55 1308.41,1454.26 1307.9,1455.96C1307.3,1457.95 1306.65,1459.92 1305.95,1461.87C1304.12,1466.99 1302,1471.99 1299.6,1476.86C1295.06,1486.07 1289.52,1494.81 1282.99,1502.74C1282.14,1503.77 1281.26,1504.8 1280.38,1505.8C1282.42,1505.85 1284.47,1505.97 1286.51,1506.18C1290.36,1506.58 1294.19,1507.29 1297.93,1508.32C1301.52,1509.3 1305.03,1510.58 1308.41,1512.12C1311.11,1513.35 1313.71,1514.75 1316.24,1516.29C1316.55,1516.46 1316.85,1516.64 1317.16,1516.82C1318.82,1517.75 1320.52,1518.61 1322.25,1519.39C1325.16,1520.71 1328.16,1521.8 1331.23,1522.66C1334.71,1523.65 1338.28,1524.35 1341.87,1524.79C1344.1,1525.06 1346.34,1525.23 1348.58,1525.33L1348.66,1525.33C1349.21,1525.31 1349.77,1525.29 1350.32,1525.28C1350.99,1525.26 1351.67,1525.24 1352.34,1525.23C1352.96,1525.22 1353.58,1525.21 1354.19,1525.2C1350.74,1527.53 1347.26,1529.84 1343.76,1532.1C1311.57,1552.95 1277.49,1570.88 1242.05,1585.56C1222.35,1593.72 1202.23,1600.88 1181.8,1607C1161.75,1613.01 1141.4,1618.01 1120.86,1621.98C1102.3,1625.57 1083.58,1628.32 1064.77,1630.24C1042.92,1632.46 1020.96,1633.55 998.999,1633.51C979.73,1633.48 960.462,1632.59 941.274,1630.82C920.449,1628.9 899.718,1625.95 879.186,1621.98C859.279,1618.13 839.559,1613.32 820.117,1607.56C798.426,1601.14 777.083,1593.54 756.211,1584.82C720.241,1569.79 685.678,1551.41 653.087,1530.02C650.731,1528.47 648.386,1526.91 646.051,1525.33L647.492,1525.33C647.913,1525.32 648.333,1525.3 648.753,1525.28C651.962,1525.1 655.161,1524.76 658.326,1524.2C662.579,1523.44 666.763,1522.3 670.792,1520.74C673.219,1519.8 675.589,1518.71 677.883,1517.48C678.367,1517.22 678.848,1516.95 679.325,1516.68C679.553,1516.55 679.782,1516.42 680.008,1516.29C680.36,1516.07 680.71,1515.86 681.063,1515.65C681.341,1515.49 681.619,1515.33 681.898,1515.17C683.741,1514.12 685.622,1513.14 687.548,1512.25C690.837,1510.74 694.243,1509.47 697.728,1508.48C701.753,1507.34 705.88,1506.57 710.043,1506.15C711.881,1505.97 713.725,1505.86 715.571,1505.81C713.535,1503.5 711.594,1501.1 709.752,1498.63C704.232,1491.24 699.59,1483.19 695.844,1474.75C693.656,1469.83 691.766,1464.76 690.221,1459.59C689.665,1457.74 689.154,1455.87 688.699,1453.98C688.366,1452.61 688.061,1451.22 687.813,1449.82L687.797,1449.73C687.779,1448.93 687.645,1448.12 687.743,1447.32C687.841,1446.53 688.057,1445.74 688.378,1445C689.027,1443.52 690.095,1442.25 691.452,1441.37C692.123,1440.93 692.865,1440.58 693.634,1440.35C694.402,1440.12 695.221,1440.12 696.014,1440.01L710.656,1440.01C710.773,1439.33 711,1438.67 711.142,1438.01L736.874,1371.91L545.316,1472.28L546.285,1473.21C576.85,1502.53 610.244,1528.9 645.862,1551.83C678.695,1572.95 713.415,1591.15 749.487,1606.09C770.51,1614.8 791.989,1622.41 813.809,1628.87C833.938,1634.83 854.355,1639.81 874.965,1643.8C894.179,1647.52 913.561,1650.37 933.03,1652.35C955.636,1654.64 978.361,1655.77 1001.08,1655.73C1021.02,1655.7 1040.96,1654.78 1060.81,1652.95C1082.37,1650.96 1103.83,1647.91 1125.08,1643.8C1146.35,1639.68 1167.42,1634.51 1188.17,1628.29C1209.96,1621.77 1231.41,1614.09 1252.4,1605.32C1290.55,1589.38 1327.17,1569.81 1361.62,1546.97C1394.55,1525.14 1425.5,1500.35 1453.99,1472.99L1268.3,1370.2L1282.98,1439.27C1282.99,1439.51 1283.02,1439.75 1283.04,1440.01L1301.33,1440.01ZM1290.11,1456.67L706.763,1456.67C707.373,1458.59 708.039,1460.48 708.75,1462.35C709.81,1465.13 710.98,1467.87 712.256,1470.56C716.037,1478.53 720.756,1486.07 726.409,1492.85C728.992,1495.95 731.769,1498.88 734.73,1501.62C737.636,1504.31 740.717,1506.82 743.952,1509.1C747.013,1511.26 750.21,1513.23 753.516,1515C757.295,1517.01 761.215,1518.76 765.234,1520.24C770.955,1522.34 776.867,1523.9 782.865,1524.99C784.485,1525.15 786.111,1525.26 787.738,1525.33L787.808,1525.33C792.108,1525.16 796.402,1524.67 800.616,1523.8C804.153,1523.06 807.632,1522.04 811.002,1520.74C813.43,1519.8 815.799,1518.71 818.093,1517.48C818.578,1517.22 819.058,1516.95 819.536,1516.68C819.764,1516.55 819.993,1516.42 820.219,1516.29C820.571,1516.07 820.921,1515.86 821.274,1515.65C821.551,1515.49 821.83,1515.33 822.109,1515.17C823.951,1514.12 825.833,1513.14 827.758,1512.25C831.048,1510.74 834.454,1509.47 837.939,1508.48C841.964,1507.34 846.091,1506.57 850.254,1506.15C852.788,1505.9 855.334,1505.78 857.88,1505.78C860.842,1505.78 863.804,1505.94 866.746,1506.29C870.391,1506.71 874.002,1507.41 877.536,1508.4C881.424,1509.49 885.214,1510.91 888.856,1512.65C891.143,1513.75 893.369,1514.96 895.533,1516.29C895.839,1516.46 896.146,1516.64 896.455,1516.82C898.268,1517.84 900.124,1518.77 902.026,1519.62C904.935,1520.9 907.94,1521.96 911.007,1522.81C914.323,1523.72 917.709,1524.37 921.122,1524.79C923.348,1525.06 925.585,1525.23 927.825,1525.33L927.977,1525.33C931.865,1525.18 935.746,1524.78 939.57,1524.05C943.553,1523.3 947.472,1522.2 951.254,1520.74C953.681,1519.8 956.05,1518.71 958.345,1517.48C958.829,1517.22 959.309,1516.95 959.787,1516.68C960.015,1516.55 960.244,1516.42 960.47,1516.29C960.822,1516.07 961.172,1515.86 961.525,1515.65C961.803,1515.49 962.081,1515.33 962.36,1515.17C964.203,1514.12 966.084,1513.14 968.01,1512.25C971.299,1510.74 974.705,1509.47 978.19,1508.48C982.215,1507.34 986.342,1506.57 990.505,1506.15C993.05,1505.9 995.606,1505.78 998.163,1505.78C1000.74,1505.78 1003.31,1505.9 1005.87,1506.15C1009.92,1506.56 1013.94,1507.31 1017.87,1508.4C1021.76,1509.49 1025.55,1510.91 1029.19,1512.65C1031.48,1513.75 1033.7,1514.96 1035.87,1516.29C1036.17,1516.46 1036.48,1516.64 1036.79,1516.82C1038.37,1517.7 1039.98,1518.53 1041.63,1519.29C1044.44,1520.57 1047.35,1521.65 1050.33,1522.52C1053.71,1523.51 1057.17,1524.22 1060.66,1524.69C1063.15,1525.02 1065.65,1525.22 1068.16,1525.33L1068.23,1525.33C1072.88,1525.15 1077.53,1524.59 1082.07,1523.57C1085.34,1522.84 1088.55,1521.86 1091.67,1520.64C1094.01,1519.72 1096.3,1518.67 1098.51,1517.48C1099,1517.22 1099.48,1516.95 1099.96,1516.68C1100.18,1516.55 1100.41,1516.42 1100.64,1516.29C1100.99,1516.08 1101.34,1515.86 1101.69,1515.65C1101.97,1515.49 1102.25,1515.33 1102.53,1515.17C1104.28,1514.17 1106.07,1513.24 1107.89,1512.38C1111.27,1510.81 1114.78,1509.5 1118.36,1508.48C1122.78,1507.23 1127.32,1506.42 1131.89,1506.04C1133.32,1505.92 1134.75,1505.85 1136.18,1505.81C1136.7,1505.8 1137.21,1505.79 1137.73,1505.78L1138.94,1505.78C1139.35,1505.79 1139.76,1505.79 1140.17,1505.8C1141.5,1505.83 1142.83,1505.89 1144.16,1505.99C1148.83,1506.34 1153.47,1507.14 1157.99,1508.4C1161.98,1509.51 1165.87,1510.99 1169.59,1512.79C1171.78,1513.85 1173.91,1515.02 1175.99,1516.29C1176.29,1516.46 1176.6,1516.64 1176.91,1516.82C1178.64,1517.79 1180.42,1518.69 1182.24,1519.51C1185.22,1520.84 1188.31,1521.94 1191.46,1522.81C1195.04,1523.79 1198.69,1524.47 1202.37,1524.88C1204.34,1525.1 1206.31,1525.24 1208.28,1525.33L1208.35,1525.33C1212.51,1525.17 1216.66,1524.71 1220.74,1523.88C1222.69,1523.38 1224.63,1522.81 1226.56,1522.19C1231.71,1520.51 1236.73,1518.39 1241.51,1515.83L1242.65,1515.17C1243.37,1514.76 1244.1,1514.36 1244.83,1513.97C1247.73,1512.26 1250.53,1510.39 1253.22,1508.38C1255.35,1506.78 1257.41,1505.09 1259.4,1503.32C1268.59,1495.13 1276.15,1485.2 1282.07,1474.43C1282.97,1472.8 1283.83,1471.16 1284.65,1469.49C1286.7,1465.33 1288.52,1461.05 1290.11,1456.67ZM1306.26,1128.03L1469.1,1458.01C1492.03,1434.52 1513.21,1409.33 1532.4,1382.7C1555.15,1351.11 1575.1,1317.51 1591.89,1282.39C1606.15,1252.58 1618.14,1221.7 1627.72,1190.07C1637.67,1157.22 1645,1123.59 1649.66,1089.58C1651.23,1078.12 1652.49,1066.61 1653.45,1055.07L1306.26,1128.03ZM346.333,1051.88C347.375,1065.17 348.82,1078.42 350.67,1091.63C355.337,1124.94 362.579,1157.88 372.327,1190.07C382.095,1222.33 394.376,1253.82 409.013,1284.18C426.344,1320.13 446.977,1354.48 470.546,1386.69C487.219,1409.47 505.36,1431.18 524.813,1451.64L695.668,1130.53L346.333,1051.88ZM1263.71,1348.62L1263.88,1348.71L1421.7,1436.07L1244.03,1256.01L1263.71,1348.62ZM712.527,1134.32L552.292,1435.48L809.954,1179.78C811.064,1179 811.645,1178.59 812.253,1178.3L819.958,1158.51L712.527,1134.32ZM731.095,1432.69L981.463,1432.69L981.463,789.616C898.007,1003.98 814.551,1218.34 731.095,1432.69ZM1013.25,1432.67L1264.53,1432.67L1013.25,250.298L1013.25,1432.67ZM1191.39,1008.33L1217.19,1129.72L1794.82,1008.33L1191.39,1008.33ZM843.764,852.665L199.019,990.106L885.521,990.106L911.559,923.226C911.371,923.069 911.181,922.914 910.985,922.768L843.764,852.665ZM1302.71,873.43L1653.54,945.964C1653.22,941.98 1652.86,937.998 1652.46,934.021C1650.48,914.203 1647.59,894.475 1643.81,874.92C1637.85,844.094 1629.65,813.7 1619.3,784.056C1609.32,755.472 1597.35,727.587 1583.5,700.665C1565.87,666.386 1545.2,633.674 1521.84,603.015C1507.5,584.209 1492.16,566.177 1475.89,549.017L1302.71,873.43ZM523.268,549.954C506.879,567.31 491.431,585.554 477.019,604.584C453.942,635.053 433.522,667.532 416.091,701.548C401.824,729.389 389.558,758.254 379.431,787.854C369.37,817.262 361.422,847.391 355.663,877.934C351.777,898.544 348.887,919.341 346.996,940.229C346.956,940.669 346.917,941.109 346.878,941.549L686.03,869.251L523.268,549.954ZM1163.81,844.711L1285.7,869.912L1450.38,561.419L1163.81,844.711ZM841.956,828.701L867.292,718.124L561.277,555.73L841.956,828.701ZM871.147,701.301L952.572,345.928C928.912,347.624 905.344,350.598 882.006,354.847C856.357,359.517 830.989,365.728 806.085,373.439C780.881,381.243 756.153,390.582 732.082,401.385C700.423,415.593 669.903,432.33 640.893,451.371C609.328,472.089 579.553,495.531 551.995,521.342C549.594,523.59 547.21,525.857 544.843,528.142L871.147,701.301ZM1125.15,696.632L1449.44,522.651L1448.77,522.015C1420.53,495.487 1389.95,471.451 1357.5,450.29C1328.43,431.334 1297.85,414.686 1266.14,400.572C1241.73,389.703 1216.64,380.338 1191.07,372.551C1166.44,365.05 1141.37,359.015 1116.02,354.483C1094.39,350.615 1072.57,347.842 1050.66,346.165L1125.15,696.632Z"/>
    </g>
</svg>
